<svg width="24" height="25" viewBox="0 0 24 25" fill="#171B18" xmlns="http://www.w3.org/2000/svg">
    <g clip-path="url(#clip0_1_2392)">
        <path d="M21.4403 11.5499L12.2503 20.7399C11.1244 21.8658 9.59747 22.4983 8.00529 22.4983C6.41311 22.4983 4.88613 21.8658 3.76029 20.7399C2.63445 19.6141 2.00195 18.0871 2.00195 16.4949C2.00195 14.9027 2.63445 13.3758 3.76029 12.2499L12.9503 3.05992C13.7009 2.30936 14.7188 1.8877 15.7803 1.8877C16.8417 1.8877 17.8597 2.30936 18.6103 3.05992C19.3609 3.81048 19.7825 4.82846 19.7825 5.88992C19.7825 6.95138 19.3609 7.96936 18.6103 8.71992L9.41029 17.9099C9.03501 18.2852 8.52602 18.496 7.99529 18.496C7.46456 18.496 6.95557 18.2852 6.58029 17.9099C6.20501 17.5346 5.99418 17.0256 5.99418 16.4949C5.99418 15.9642 6.20501 15.4552 6.58029 15.0799L15.0703 6.59992" stroke="white" stroke-width="2" stroke-linecap="round" stroke-linejoin="round" />
    </g>
    <defs>
        <clipPath id="clip0_1_2392">
            <rect width="24" height="24" fill="white" transform="translate(0 0.5)" />
        </clipPath>
    </defs>
</svg>