<svg
        version="1.0" xmlns="http://www.w3.org/2000/svg"
        height="50px" width="200px" viewBox="0 0 285.000000 57.000000"
        preserveAspectRatio="xMidYMid meet">
<g
transform="translate(0.000000,57.000000) scale(0.100000,-0.100000)"
fill="white" stroke="none">
<path d="M226 389 c-48 -29 -90 -57 -92 -64 -3 -7 -4 -29 -2 -48 l3 -36 88 51
    c101 58 83 59 215 -17 l62 -36 0 45 c0 50 -1 51 -130 124 l-56 32 -88 -51z"/>
<path d="M672 370 c-89 -54 -98 -185 -16 -249 34 -27 89 -37 121 -22 18 8 29
    9 37 1 5 -5 23 -10 38 -10 l28 0 0 80 0 80 -60 0 -60 0 0 -30 c0 -24 4 -30 23
    -30 21 -1 22 -1 3 -15 -28 -21 -53 -18 -81 10 -31 30 -32 73 -4 109 24 30 49
    33 90 9 28 -17 30 -17 50 4 28 27 19 50 -26 68 -48 21 -104 19 -143 -5z"/>
<path d="M927 375 c-7 -17 -6 -254 1 -272 3 -9 33 -13 103 -13 l99 0 0 35 0
    35 -60 0 c-57 0 -60 1 -60 25 0 23 3 25 50 25 l50 0 0 35 0 35 -50 0 c-43 0
    -50 3 -50 20 0 18 7 20 60 20 l60 0 0 35 0 35 -99 0 c-77 0 -100 -3 -104 -15z"/>
<path d="M1180 240 l0 -151 103 3 102 3 3 33 3 32 -65 0 c-64 0 -66 1 -66 25
    0 23 3 25 50 25 l50 0 0 35 0 35 -50 0 c-43 0 -50 3 -50 20 0 18 7 20 60 20
    l60 0 0 35 0 35 -100 0 -100 0 0 -150z"/>
<path d="M1430 240 l0 -150 39 0 40 0 3 52 c2 28 8 53 13 55 6 1 26 -22 45
    -52 33 -52 37 -55 78 -55 23 0 42 3 42 6 0 3 -25 41 -54 83 l-55 78 50 61 c27
    33 49 63 49 66 0 3 -19 6 -42 6 -40 -1 -46 -5 -83 -53 l-40 -52 -3 53 -3 52
    -40 0 -39 0 0 -150z"/>
<path d="M1780 382 c-85 -40 -118 -138 -73 -215 31 -53 80 -80 136 -74 49 4
    100 33 105 58 1 8 -10 21 -26 30 -27 15 -30 15 -51 -2 -30 -24 -42 -24 -75 2
    -20 16 -26 29 -26 60 0 67 56 100 108 64 19 -14 24 -14 47 1 31 20 31 25 0 54
    -18 17 -39 24 -77 27 -29 1 -60 -1 -68 -5z"/>
<path d="M1990 240 l0 -150 40 0 40 0 0 60 0 60 50 0 50 0 0 -60 0 -60 40 0
    40 0 0 150 0 150 -40 0 -40 0 0 -55 0 -55 -50 0 -50 0 0 55 0 55 -40 0 -40 0
    0 -150z"/>
<path d="M2330 253 c-23 -76 -45 -144 -48 -151 -3 -10 6 -12 39 -10 37 3 44 7
    49 28 5 21 12 25 47 28 37 3 42 1 51 -27 9 -27 16 -31 46 -31 20 0 36 3 36 8
    1 4 -18 71 -42 149 l-43 143 -46 0 -46 0 -43 -137z m106 -11 c6 -29 4 -32 -19
    -32 -24 0 -25 1 -15 41 12 44 24 41 34 -9z"/>
<path d="M2540 355 c0 -34 1 -35 40 -35 l40 0 0 -115 0 -115 40 0 40 0 0 115
    0 115 45 0 c45 0 45 0 45 35 l0 35 -125 0 -125 0 0 -35z"/>
<path d="M218 248 c-87 -50 -88 -51 -88 -89 0 -22 4 -39 10 -39 5 0 44 20 86
    45 41 25 81 45 88 45 7 0 48 -20 92 -45 43 -25 82 -45 86 -45 5 0 8 17 8 39 0
    38 -1 39 -90 90 -49 28 -93 51 -97 50 -5 0 -47 -23 -95 -51z"/>
</g>
        </svg>